<svg width="316.31005859375px" height="122.021240234375px" xmlns="http://www.w3.org/2000/svg" viewBox="91.844970703125 13.9893798828125 316.31005859375 122.021240234375" style="background: rgba(0, 0, 0, 0);" preserveAspectRatio="xMidYMid"><defs><linearGradient id="editing-outline-gradient" x1="-0.41354545764260087" x2="1.4135454576426008" y1="0.09326335692419985" y2="0.9067366430758002"><stop offset="0" stop-color="#ee4208"></stop><stop offset="1" stop-color="#4139ff"></stop></linearGradient><filter id="editing-outline" x="-100%" y="-100%" width="300%" height="300%"><feMorphology in="SourceGraphic" operator="dilate" radius="1" result="outline"></feMorphology><feComposite operator="out" in="outline" in2="SourceAlpha"></feComposite></filter></defs><g filter="url(#editing-outline)"><g transform="translate(142.1599966287613, 98.67218780517578)"><path d="M34.50-13.25L34.50-13.25L34.50-13.25Q36.16-12.03 36.16-9.44L36.16-9.44L36.16-9.44Q36.16-6.85 35.04-5.02L35.04-5.02L35.04-5.02Q33.92-3.20 31.74-1.79L31.74-1.79L31.74-1.79Q27.07 1.22 18.91 1.22L18.91 1.22L18.91 1.22Q10.75 1.22 6.30-3.04L6.30-3.04L6.30-3.04Q1.86-7.30 1.86-14.85L1.86-14.85L1.86-14.85Q1.86-25.54 7.42-33.66L7.42-33.66L7.42-33.66Q11.65-39.68 19.20-42.24L19.20-42.24L19.20-42.24Q23.10-43.52 26.94-43.52L26.94-43.52L26.94-43.52Q30.78-43.52 33.15-43.01L33.15-43.01L33.15-43.01Q35.52-42.50 37.31-41.47L37.31-41.47L37.31-41.47Q41.22-39.23 41.22-35.65L41.22-35.65L41.22-35.65Q41.22-32.38 38.14-29.95L38.14-29.95L38.14-29.95Q35.33-27.78 33.02-27.78L33.02-27.78L33.02-27.78Q30.72-27.78 29.76-28.10L29.76-28.10L29.76-28.10Q30.02-30.40 30.02-31.90L30.02-31.90L30.02-31.90Q30.02-33.41 29.95-34.50L29.95-34.50L29.95-34.50Q29.89-35.58 29.57-36.61L29.57-36.61L29.57-36.61Q28.93-38.98 26.98-38.98L26.98-38.98L26.98-38.98Q25.02-38.98 23.07-37.15L23.07-37.15L23.07-37.15Q21.12-35.33 19.46-32.26L19.46-32.26L19.46-32.26Q15.68-25.28 15.68-17.02L15.68-17.02L15.68-17.02Q15.68-13.06 17.92-10.78L17.92-10.78L17.92-10.78Q20.16-8.51 24.96-8.51L24.96-8.51L24.96-8.51Q28.54-8.51 31.94-10.88L31.94-10.88L31.94-10.88Q33.41-11.90 34.50-13.25ZM73.66-7.10L73.66-7.10L73.66-7.10Q73.66-4.29 76.54-3.46L76.54-3.46L76.54-3.46Q75.84-1.09 73.09 0.19L73.09 0.19L73.09 0.19Q70.78 1.28 68.26 1.28L68.26 1.28L68.26 1.28Q65.73 1.28 64.42 0.61L64.42 0.61L64.42 0.61Q63.10-0.06 62.40-1.15L62.40-1.15L62.40-1.15Q61.25-2.82 61.25-5.95L61.25-5.95L61.25-5.95Q61.25-7.81 62.27-12.93L62.27-12.93L63.17-17.79L63.17-17.79Q64.26-23.36 64.26-25.41L64.26-25.41L64.26-25.41Q64.26-28.99 62.27-28.99L62.27-28.99L62.27-28.99Q59.78-28.99 58.18-25.34L58.18-25.34L58.18-25.34Q57.54-23.94 57.09-21.82L57.09-21.82L52.74 0L39.87 1.28L48.90-44.80L61.76-46.08L61.25-43.52L61.25-43.52Q59.46-33.66 57.92-30.34L57.92-30.34L57.92-30.34Q61.50-33.92 68.10-33.92L68.10-33.92L68.10-33.92Q75.07-33.92 76.35-29.31L76.35-29.31L76.35-29.31Q76.80-27.84 76.80-26.56L76.80-26.56L76.80-26.56Q76.80-25.28 76.70-24.29L76.70-24.29L76.70-24.29Q76.61-23.30 76.29-21.50L76.29-21.50L75.46-16.90L73.98-9.66L73.98-9.66Q73.66-8.19 73.66-7.10ZM107.65-10.82L107.65-10.82L107.65-10.82Q109.25-9.73 109.25-7.33L109.25-7.33L109.25-7.33Q109.25-4.93 108.03-3.39L108.03-3.39L108.03-3.39Q106.82-1.86 104.83-0.83L104.83-0.83L104.83-0.83Q100.74 1.28 96.32 1.28L96.32 1.28L96.32 1.28Q91.90 1.28 89.31 0.32L89.31 0.32L89.31 0.32Q86.72-0.64 84.99-2.43L84.99-2.43L84.99-2.43Q81.60-5.82 81.60-12.03L81.60-12.03L81.60-12.03Q81.60-21.70 86.85-27.58L86.85-27.58L86.85-27.58Q92.48-33.92 102.27-33.92L102.27-33.92L102.27-33.92Q108.35-33.92 111.36-31.36L111.36-31.36L111.36-31.36Q113.60-29.44 113.60-26.30L113.60-26.30L113.60-26.30Q113.60-15.04 94.14-15.04L94.14-15.04L94.14-15.04Q93.89-13.38 93.89-11.97L93.89-11.97L93.89-11.97Q93.89-9.02 95.20-7.90L95.20-7.90L95.20-7.90Q96.51-6.78 98.94-6.78L98.94-6.78L98.94-6.78Q101.38-6.78 103.97-7.90L103.97-7.90L103.97-7.90Q106.56-9.02 107.65-10.82ZM94.59-17.79L94.59-17.79L94.59-17.79Q99.14-17.79 101.76-20.61L101.76-20.61L101.76-20.61Q104.38-23.30 104.38-27.58L104.38-27.58L104.38-27.58Q104.38-29.06 103.84-29.86L103.84-29.86L103.84-29.86Q103.30-30.66 102.21-30.66L102.21-30.66L102.21-30.66Q101.12-30.66 100.19-30.24L100.19-30.24L100.19-30.24Q99.26-29.82 98.30-28.42L98.30-28.42L98.30-28.42Q95.94-25.22 94.59-17.79ZM116.80-6.40L116.80-6.40L116.80-6.40Q116.80-8.13 117.70-12.48L117.70-12.48L121.09-29.76L117.31-29.76L117.57-31.68L117.57-31.68Q125.25-33.98 132.67-39.62L132.67-39.62L135.74-39.62L134.21-32.64L139.20-32.64L138.62-29.76L133.70-29.76L130.43-12.48L130.43-12.48Q129.60-8.51 129.60-7.17L129.60-7.17L129.60-7.17Q129.60-4.10 132.29-3.46L132.29-3.46L132.29-3.46Q131.65-1.28 129.34 0L129.34 0L129.34 0Q127.04 1.28 123.78 1.28L123.78 1.28L123.78 1.28Q120.51 1.28 118.66-0.77L118.66-0.77L118.66-0.77Q116.80-2.82 116.80-6.40ZM141.41-1.92L141.41-1.92L141.41-1.92Q139.90-3.58 139.23-6.21L139.23-6.21L139.23-6.21Q138.56-8.83 138.56-13.12L138.56-13.12L138.56-13.12Q138.56-17.41 140.03-21.31L140.03-21.31L140.03-21.31Q141.50-25.22 144.19-28.03L144.19-28.03L144.19-28.03Q149.70-33.92 158.78-33.92L158.78-33.92L158.78-33.92Q162.05-33.92 164.42-32.83L164.42-32.83L175.36-33.92L170.62-8.96L170.62-8.96Q170.43-8.19 170.43-6.78L170.43-6.78L170.43-6.78Q170.43-5.38 171.30-4.48L171.30-4.48L171.30-4.48Q172.16-3.58 173.44-3.46L173.44-3.46L173.44-3.46Q172.80-1.28 170.46 0L170.46 0L170.46 0Q168.13 1.28 165.50 1.28L165.50 1.28L165.50 1.28Q162.88 1.28 161.12 0.29L161.12 0.29L161.12 0.29Q159.36-0.70 158.85-2.37L158.85-2.37L158.85-2.37Q157.82-0.77 155.65 0.26L155.65 0.26L155.65 0.26Q153.47 1.28 150.56 1.28L150.56 1.28L150.56 1.28Q147.65 1.28 145.28 0.51L145.28 0.51L145.28 0.51Q142.91-0.26 141.41-1.92ZM154.91-27.90L154.91-27.90L154.91-27.90Q154.18-26.75 153.54-24.80L153.54-24.80L153.54-24.80Q152.90-22.85 151.84-17.63L151.84-17.63L151.84-17.63Q150.78-12.42 150.78-8.70L150.78-8.70L150.78-8.70Q150.78-4.99 151.36-3.90L151.36-3.90L151.36-3.90Q151.94-2.82 152.96-2.82L152.96-2.82L152.96-2.82Q155.01-2.82 156.51-4.77L156.51-4.77L156.51-4.77Q158.02-6.72 158.59-10.18L158.59-10.18L161.98-28.93L161.98-28.93Q160.64-30.08 159.07-30.08L159.07-30.08L159.07-30.08Q157.50-30.08 156.58-29.57L156.58-29.57L156.58-29.57Q155.65-29.06 154.91-27.90ZM205.89 1.28L205.89 1.28L205.89 1.28Q198.14 1.28 198.14-4.74L198.14-4.74L198.14-4.74Q198.21-6.40 198.72-9.22L198.72-9.22L199.87-15.10L199.87-15.10Q201.60-23.42 201.60-25.28L201.60-25.28L201.60-25.28Q201.60-28.99 199.42-28.99L199.42-28.99L199.42-28.99Q195.78-28.99 193.86-19.46L193.86-19.46L190.08 0L177.22 1.28L183.87-32.70L194.37-33.92L193.34-27.65L193.34-27.65Q196.35-33.92 205.57-33.92L205.57-33.92L205.57-33.92Q210.05-33.92 211.94-32.03L211.94-32.03L211.94-32.03Q213.82-30.14 213.82-25.92L213.82-25.92L213.82-25.92Q213.82-21.95 211.78-12.67L211.78-12.67L211.78-12.67Q210.82-8.51 210.82-6.94L210.82-6.94L210.82-6.94Q210.82-5.38 211.68-4.48L211.68-4.48L211.68-4.48Q212.54-3.58 213.82-3.46L213.82-3.46L213.82-3.46Q213.18-1.28 210.98 0L210.98 0L210.98 0Q208.77 1.28 205.89 1.28Z" fill="url(#editing-outline-gradient)"></path></g></g><style>text {
  font-size: 64px;
  font-family: Arial Black;
  dominant-baseline: central;
  text-anchor: middle;
}</style></svg>